ffmpeg started on 2016-11-27 at 03:40:58
Report written to "Output/NVENCh264/results/ffmpeg/crowd_run_2160p50llhq2500k.log"
Command line:
Tools/ffmpeg/ffmpeg -benchmark -y -i Input/y4m/crowd_run_2160p50.y4m -c:v h264_nvenc -preset llhq -b:v 2500k -an Output/NVENCh264/encoded/crowd_run_2160p50llhq2500k.mkv
ffmpeg version N-82227-gdb23fde Copyright (c) 2000-2016 the FFmpeg developers
  built with gcc 5.4.0 (Ubuntu 5.4.0-6ubuntu1~16.04.2) 20160609
  configuration: --prefix=/home/jaroslav/ffmpeg_build --pkg-config-flags=--static --extra-cflags=-I/home/jaroslav/ffmpeg_build/include --extra-ldflags=-L/home/jaroslav/ffmpeg_build/lib --bindir=/home/jaroslav/bin --enable-gpl --enable-libass --enable-libfdk-aac --enable-libfreetype --enable-libmp3lame --enable-libopus --enable-libtheora --enable-libvorbis --enable-libvpx --enable-libx264 --enable-libx265 --enable-nvenc --enable-libmfx --enable-libxvid --enable-libgsm --enable-libopencore-amrnb --enable-version3 --enable-nonfree
  libavutil      55. 35.100 / 55. 35.100
  libavcodec     57. 66.101 / 57. 66.101
  libavformat    57. 57.100 / 57. 57.100
  libavdevice    57.  2.100 / 57.  2.100
  libavfilter     6. 66.100 /  6. 66.100
  libswscale      4.  3.100 /  4.  3.100
  libswresample   2.  4.100 /  2.  4.100
  libpostproc    54.  2.100 / 54.  2.100
Input #0, yuv4mpegpipe, from 'Input/y4m/crowd_run_2160p50.y4m':
  Duration: 00:00:10.00, start: 0.000000, bitrate: 4976642 kb/s
    Stream #0:0: Video: rawvideo (I420 / 0x30323449), yuv420p(progressive), 3840x2160, SAR 1:1 DAR 16:9, 50 fps, 50 tbr, 50 tbn, 50 tbc
[h264_nvenc @ 0x2c9c1c0] The variable bitrate rate-control requires the 'qmin' and/or 'qmax' option set.
Output #0, matroska, to 'Output/NVENCh264/encoded/crowd_run_2160p50llhq2500k.mkv':
  Metadata:
    encoder         : Lavf57.57.100
    Stream #0:0: Video: h264 (h264_nvenc) (Main) (H264 / 0x34363248), yuv420p, 3840x2160 [SAR 1:1 DAR 16:9], q=-1--1, 2500 kb/s, 50 fps, 1k tbn, 50 tbc
    Metadata:
      encoder         : Lavc57.66.101 h264_nvenc
    Side data:
      cpb: bitrate max/min/avg: 0/0/2500000 buffer size: 5000000 vbv_delay: -1
Stream mapping:
  Stream #0:0 -> #0:0 (rawvideo (native) -> h264 (h264_nvenc))
Press [q] to stop, [?] for help
frame=    9 fps=0.0 q=0.0 size=       0kB time=00:00:00.00 bitrate=N/A speed=   0x    frame=   23 fps= 22 q=0.0 size=       0kB time=00:00:00.00 bitrate=N/A speed=   0x    frame=   38 fps= 25 q=49.0 size=       1kB time=00:00:00.14 bitrate=  42.4kbits/s speed=0.0911x    frame=   56 fps= 27 q=49.0 size=       1kB time=00:00:00.50 bitrate=  11.9kbits/s speed=0.243x    frame=   74 fps= 29 q=49.0 size=       1kB time=00:00:00.86 bitrate=   6.9kbits/s speed=0.334x    frame=   92 fps= 30 q=49.0 size=       1kB time=00:00:01.22 bitrate=   4.9kbits/s speed=0.394x    frame=  110 fps= 30 q=49.0 size=       1kB time=00:00:01.58 bitrate=   3.8kbits/s speed=0.436x    frame=  128 fps= 31 q=49.0 size=       1kB time=00:00:01.94 bitrate=   3.1kbits/s speed=0.468x    frame=  146 fps= 31 q=49.0 size=       1kB time=00:00:02.30 bitrate=   2.6kbits/s speed=0.493x    frame=  155 fps= 22 q=49.0 size=       1kB time=00:00:02.48 bitrate=   2.4kbits/s speed=0.35x    frame=  156 fps= 17 q=49.0 size=       1kB time=00:00:02.50 bitrate=   2.4kbits/s speed=0.271x    frame=  173 fps= 18 q=49.0 size=       1kB time=00:00:02.84 bitrate=   2.1kbits/s speed=0.292x    frame=  190 fps= 19 q=49.0 size=       1kB time=00:00:03.18 bitrate=   1.9kbits/s speed=0.31x    frame=  207 fps= 19 q=49.0 size=       1kB time=00:00:03.52 bitrate=   1.7kbits/s speed=0.327x    frame=  224 fps= 20 q=49.0 size=       1kB time=00:00:03.86 bitrate=   1.5kbits/s speed=0.343x    frame=  242 fps= 21 q=49.0 size=       1kB time=00:00:04.22 bitrate=   1.4kbits/s speed=0.358x    frame=  259 fps= 21 q=49.0 size=       1kB time=00:00:04.56 bitrate=   1.3kbits/s speed=0.371x    frame=  277 fps= 22 q=49.0 size=       1kB time=00:00:04.92 bitrate=   1.2kbits/s speed=0.384x    frame=  294 fps= 22 q=49.0 size=    3021kB time=00:00:05.26 bitrate=4704.8kbits/s speed=0.387x    frame=  312 fps= 22 q=49.0 size=    3021kB time=00:00:05.62 bitrate=4403.4kbits/s speed=0.398x    frame=  321 fps= 22 q=49.0 size=    3021kB time=00:00:05.80 bitrate=4266.8kbits/s speed=0.396x    frame=  339 fps= 22 q=49.0 size=    3021kB time=00:00:06.16 bitrate=4017.5kbits/s speed=0.406x    frame=  357 fps= 23 q=49.0 size=    3021kB time=00:00:06.52 bitrate=3795.7kbits/s speed=0.415x    frame=  375 fps= 23 q=49.0 size=    3021kB time=00:00:06.88 bitrate=3597.1kbits/s speed=0.424x    frame=  393 fps= 23 q=49.0 size=    3021kB time=00:00:07.24 bitrate=3418.3kbits/s speed=0.433x    frame=  411 fps= 24 q=49.0 size=    3021kB time=00:00:07.60 bitrate=3256.4kbits/s speed=0.441x    frame=  429 fps= 24 q=49.0 size=    3021kB time=00:00:07.96 bitrate=3109.1kbits/s speed=0.448x    frame=  447 fps= 24 q=49.0 size=    3021kB time=00:00:08.32 bitrate=2974.6kbits/s speed=0.455x    frame=  465 fps= 25 q=49.0 size=    3021kB time=00:00:08.68 bitrate=2851.3kbits/s speed=0.462x    frame=  483 fps= 25 q=49.0 size=    3021kB time=00:00:09.04 bitrate=2737.7kbits/s speed=0.469x    frame=  500 fps= 25 q=49.0 size=    3021kB time=00:00:09.38 bitrate=2638.5kbits/s speed=0.474x    frame=  500 fps= 25 q=49.0 Lsize=    6233kB time=00:00:09.98 bitrate=5115.5kbits/s speed=0.503x    
video:6228kB audio:0kB subtitle:0kB other streams:0kB global headers:0kB muxing overhead: 0.068173%
bench: utime=1.204s
bench: maxrss=1396692kB
